<svg width="60" height="60" viewBox="0 0 60 60" fill="none" xmlns="http://www.w3.org/2000/svg">
<path d="M58.32 25.0594L57.4131 23.8213C38.4337 -1.97953 20.8863 -0.0210864 20.1466 0.0653565C20.1376 0.0672155 20.1284 0.0709334 20.119 0.0765104C18.8888 0.107263 17.6841 0.495057 16.6114 1.20556C15.5388 1.91605 14.6313 2.92734 13.9694 4.14986C13.3074 5.37239 12.9114 6.76844 12.8164 8.2144C12.7214 9.66036 12.9304 11.1116 13.4247 12.4397C13.4247 12.4397 -0.0189059 53.8365 1.9964e-05 53.8951C0.00396285 53.909 0.0299859 58.6429 0.0299859 58.6429C0.0299859 59.077 0.158524 59.4888 0.458183 59.7416C0.636826 59.9072 0.857074 59.998 1.08431 60C1.20906 59.9966 1.33289 59.9737 1.45258 59.9321L24.58 50.8798C25.0129 52.5139 25.7494 54.0066 27.3778 54.0066C28.3359 54.0066 29.1095 53.659 29.6757 52.9721C30.5763 51.8846 30.7143 50.2608 30.7096 48.478L54.5577 39.1431C56.4708 38.5018 60.073 35.8889 59.9989 30.5797C59.9769 28.5702 59.386 26.6278 58.32 25.0594ZM20.2743 2.77204C20.298 2.77204 20.3138 2.7581 20.3366 2.7581C20.3566 2.76182 20.3774 2.76367 20.3989 2.76367C20.5574 2.73951 36.0443 1.12684 53.2226 22.4336C50.8735 22.3063 48.8145 23.2023 47.3343 25.1105C46.3763 26.3648 45.7448 27.9175 45.5151 29.5833C37.3241 18.1459 27.4519 12.1088 15.494 11.1152C15.2391 10.4072 15.103 9.64778 15.0934 8.87881C15.0955 7.25995 15.642 5.7081 16.6131 4.56339C17.5843 3.41868 18.9009 2.7745 20.2743 2.77204ZM2.33263 54.3543L22.2631 45.9052C22.6732 45.7063 22.9996 45.6579 23.1589 45.7499C23.5501 45.9916 23.8221 47.1609 24.0319 48.2466L2.33263 56.7616V54.3543ZM17.5537 43.9393C14.6597 43.9393 12.2159 42.0691 12.2159 39.8514C12.2159 37.6336 14.6612 35.7635 17.5545 35.7635C20.4478 35.7635 22.8892 37.6336 22.8892 39.8514C22.8892 42.0691 20.4462 43.9393 17.5537 43.9393ZM28.0268 51.075C27.9811 51.1298 27.8494 51.2897 27.3778 51.2897C26.9496 51.2897 26.6105 49.4437 26.4102 48.3423C26.0396 46.3197 25.6548 44.2302 24.2322 43.3453C24.1928 43.3202 24.1494 43.3128 24.1076 43.2905C24.7803 42.2774 25.1943 41.1108 25.1943 39.8514C25.1943 36.0377 21.8396 33.0493 17.5561 33.0493C13.2726 33.0493 9.91479 36.0377 9.91479 39.8514C9.91479 42.7886 11.9146 45.2201 14.7882 46.1896L3.08335 51.1503L12.2182 23.5629V23.5648C12.2182 27.3813 15.576 30.3668 19.8595 30.3668C24.1431 30.3668 27.4977 27.3785 27.4977 23.5648C27.4977 19.7511 24.1423 16.7628 19.8587 16.7628C17.146 16.7628 14.8119 17.9655 13.4594 19.8134L15.438 13.8395C27.3455 14.8629 37.0608 21.2764 45.079 33.3449L31.0897 39.2779L31.0778 39.2862L31.0621 39.289C28.2389 40.5782 28.3241 44.2646 28.3935 47.225C28.4251 48.7048 28.4645 50.5433 28.0268 51.075ZM14.5161 23.5657C14.5161 21.3507 16.9623 19.4778 19.8548 19.4778C22.7473 19.4778 25.1903 21.348 25.1903 23.5657C25.1903 25.7835 22.7489 27.6536 19.8564 27.6536C16.9623 27.6536 14.5161 25.7835 14.5161 23.5657ZM53.8779 36.5433L30.682 46.0009C30.6977 44.009 30.9106 42.5813 31.8908 42.5813H31.8932L46.8683 35.8499C46.9534 35.8741 47.0339 35.73 47.1214 35.73C47.3241 35.73 47.5267 35.5757 47.7113 35.4456C47.9587 35.2629 48.1411 34.98 48.2242 34.65C48.3072 34.3201 48.2852 33.9657 48.1623 33.6535C47.7477 32.6001 47.6091 31.4249 47.7642 30.2781C47.9193 29.1313 48.361 28.0651 49.0329 27.2159C50.5549 25.2555 52.9545 23.5815 55.8076 26.2957H55.817L56.5449 27.0365C57.2767 28.1277 57.6757 29.3277 57.6939 30.7386C57.7562 35.2662 54.0782 36.4745 53.8779 36.5433Z" fill="black"/>
</svg>
